<svg xmlns="http://www.w3.org/2000/svg" viewBox="0 0 500 500"><defs><style>.cls-1{fill:#7444ad;}.cls-2{fill:#fff;}.cls-3{fill:#54a25a;}.cls-4{fill:#5ecb73;}.cls-5{fill:#d4e9ff;}.cls-17,.cls-26,.cls-6{fill:none;stroke-miterlimit:10;}.cls-6{stroke:#130e42;}.cls-26,.cls-6{stroke-width:0.99px;}.cls-7{fill:#130e42;}.cls-8{fill:#6fa4ff;}.cls-9{fill:#ff981a;}.cls-10{fill:#ffc21a;}.cls-11{fill:#d54d1a;}.cls-12{fill:#ff9f8d;}.cls-13{fill:#ffb6ab;}.cls-14{fill:#ff716a;}.cls-15{fill:#0f3c8b;}.cls-16{fill:#231d5a;}.cls-17{stroke:#231d5a;stroke-width:0.49px;}.cls-18{fill:#456bff;}.cls-19{fill:#ff5a61;}.cls-20{fill:#ff8e75;}.cls-21{fill:#484fb6;}.cls-22{fill:#c2e0ff;}.cls-23{fill:#ff6961;}.cls-24{fill:#4582ff;}.cls-25{fill:#ff7e79;}.cls-26{stroke:#6fa4ff;}</style></defs><g id="BACKGROUND"><rect class="cls-1" width="500" height="500"/><rect class="cls-2" width="500" height="500"/></g><g id="OBJECTS"><path class="cls-3" d="M91.27,248.41s6.9-6.9,3.45-10.69-4.49-4.83-4.14-10.69S83,222.54,83,217.37s-2.07-8.62-6.55-9.65-3.11-6.9-5.86-6.9-5.87,3.79-3.8,7.24,4.14,5.17,3.45,9.31,4.48,3.79,5.17,7.24-3.44,7.25.35,10.69,7.59,4.49,6.55,7.59S87.13,249.79,91.27,248.41Z"/><path class="cls-4" d="M90.83,253.45s-8.51-8.51-4.26-13.19,5.53-6,5.11-13.2,9.36-5.53,9.36-11.91,2.55-10.64,8.09-11.92,3.83-8.51,7.23-8.51,7.23,4.68,4.68,8.94-5.11,6.38-4.25,11.49-5.54,4.68-6.39,8.94,4.26,8.93-.42,13.19-9.36,5.53-8.09,9.36S95.93,255.15,90.83,253.45Z"/><path class="cls-5" d="M97,267.82H87.42a4.7,4.7,0,0,1-4.65-4.06l-2.55-18.59h24l-2.55,18.59A4.7,4.7,0,0,1,97,267.82Z"/><path class="cls-6" d="M406.35,212.2S398.11,219.77,405,233s2,27.67-3.95,31.63"/><path class="cls-5" d="M388.72,254.94s6.92,3.21,6.92,10.13H379.58Z"/><polygon class="cls-5" points="378.51 181.06 377.85 187.65 408.49 218.29 410.8 211.04 378.51 181.06"/><rect class="cls-7" x="393.33" y="170.85" width="4.94" height="51.72" transform="translate(-23.17 337.49) rotate(-45)"/><rect class="cls-7" x="360.69" y="236.9" width="67.26" height="8.89" transform="translate(-28.33 428.73) rotate(-55.38)"/><polygon class="cls-8" points="285.61 349.41 260.57 440.34 257.93 440.34 278.36 347.43 285.61 349.41"/><polygon class="cls-8" points="264.52 349.41 239.48 440.34 236.85 440.34 257.27 347.43 264.52 349.41"/><polygon class="cls-8" points="300.1 349.41 325.14 440.34 327.77 440.34 307.35 347.43 300.1 349.41"/><polygon class="cls-8" points="321.19 349.41 346.22 440.34 348.86 440.34 328.43 347.43 321.19 349.41"/><path class="cls-9" d="M331.07,288.79s-.66-52.05-25-52.71-39.53,19.11-42.17,42.83-18.45,56-21.74,65.89S285,358,297.47,354s38.87-4.61,36.89-32.28S331.07,288.79,331.07,288.79Z"/><path class="cls-10" d="M325.8,243.33s28,83.22,12.52,100.15c-17.79,19.44-86.32,12.19-88.95,8.24s69.18,1.64,77.09-16.81-10.54-89.6-7.25-91.58S323.82,238.72,325.8,243.33Z"/><path class="cls-11" d="M274.73,163.27s-18.44,7.66-13.83,31c2,3,7.25-1.32,17.13-.66s24.05-3.29,23.39-10.21S292.52,158.66,274.73,163.27Z"/><path class="cls-12" d="M239.15,199.84s.66-7.25-4.94-10.21a29.29,29.29,0,0,1-9.22-8.24,2.61,2.61,0,0,0-1,3.63c1.32,2.3,2.64,3,2.64,4.61a5.46,5.46,0,0,1-1,3s-4-2.63-6.59-4.61-7.25-8.89-8.24-8.23-1.32,1.64.33,3.29,5.6,6.59,8.24,8.57-11.53-10.88-12.52-10.22,1,3.63,3.62,6.26,9.23,5.93,13.18,7.91S239.15,199.84,239.15,199.84Z"/><path class="cls-13" d="M240,203.3s13.35,49.21,12.61,57-14.09,7.77-16.07,1.84-3.46-51.4-5.44-58.31-18.28-10.88-18.28-10.88-9.88-8.4-8.9-8.89,4.95,0,8.41,3,4.94,4,12.35,4.45,12.85,0,14.82,4.45S240,203.3,240,203.3Z"/><path class="cls-14" d="M268.15,215.16s-4-.49-8.9,7.91-24.21,36.07-15.81,41,14.82-1,17.29-5.93,22.73-28.66,21.25-35.08A10.68,10.68,0,0,0,268.15,215.16Z"/><path class="cls-14" d="M181.38,424.38l-2.26,3.39s-11.29,15.06-11.29,17.69,16.56-8.65,18.07-10.54a10.13,10.13,0,0,0,1.88-4.14l1.13-4.52Z"/><path class="cls-14" d="M220.91,426.64l1.5,4.14s1.13,13.55,4.52,16.94c3.39,2.64,5.27-15.81,3.77-19.57a45.32,45.32,0,0,0-2.26-4.14Z"/><path class="cls-15" d="M270.23,307.3s-40.66,0-73,20.33c-16.56,15.06,18.82,99,21.84,100.52,3.76,1.5,9.41-1.13,11.67-4.14,1.5-3-7.91-57.23-7.16-71.53l58.73-18.82Z"/><path class="cls-16" d="M191.17,428.52c-2.26.76-9,0-11.3-4.51s26.36-73,41.42-88.85S265,307.3,265,307.3l7.48-21.8,41.51-4s14.26,34,7.48,48.35c0,0-1.5,15.81-27.1,17.32s-45.18,4.52-51.95,8.28S191.17,428.52,191.17,428.52Z"/><path class="cls-14" d="M274.52,210.52a18.79,18.79,0,0,0-12.35,11.65c-.1.25-.19.5-.28.73-1.32,3.3-8.57,13.18-3.3,21.09s7.91,10.54,7.91,23.06-2,13.18,0,17.13c3.29,3.95,21.74,11.2,52.05-.66,4.79-1.87-5.93-17.79-3.29-31.63s7.9-29.65,2.63-36.23C313.38,210,294.37,204.85,274.52,210.52Z"/><path class="cls-14" d="M314.6,213.68s5.93.49,13.83,11.36,22.74,27.68,24.22,33.61c1,5.93-8.4,9.88-16.31,5.43s-22.24-21.25-27.67-27.67S303.73,211.21,314.6,213.68Z"/><path class="cls-13" d="M344.1,252.37s8.44.6,8.79,8-5.55,8.18-19.47,6.85-37.21-2.21-41.67-2.5-6.26,3.76-11.76,2.53-6.06-2.68-8.53-2.57-7.69,4.81-10.2,3.94,5.69-5.21,10.51-7.91,15.11-4.84,19.11-4,31-3.26,40.39-3.7Z"/><path class="cls-12" d="M270.62,212.2s-5.93,11.36,8.89,15.81,33.36-10.13,32.86-16.31C306,208.74,283.22,205.28,270.62,212.2Z"/><path class="cls-12" d="M267.82,185s-3.3,7.9-1,11.2,11.2,2.3,13.18,4.61,2.63,7.58-1.32,10.21c-2,2.64,14.82,3.3,18.12-.33-.33-2-5.6-9.55-4.94-14.16s2.63-12.85,3.29-19.77-7.25-10.21-11.86-10.87-11.2.33-12.85,5.93-4.94,10.87-5.93,11.86S267.82,185,267.82,185Z"/><path class="cls-11" d="M280,168.55s-2.31,3,1,8.89,7.25,12.19,3.63,20.43a29.06,29.06,0,0,0,24.05-10.22c-1-3.62-5.6-17.79-14.83-23.72s-19.11-2.3-22.73,1-10.79,12.4-10.13,21C261,188.52,264.93,163.64,280,168.55Z"/><path class="cls-17" d="M280.25,208.74a11,11,0,0,0,5.69,8.15c2.71.5,8.4-4.94,9.88-9.14"/><circle class="cls-2" cx="285.94" cy="218.37" r="1.98"/><rect class="cls-2" x="154.69" y="251.44" width="41.43" height="7.21"/><polygon class="cls-16" points="197.67 251.44 197.67 250.19 113.69 250.19 113.69 258.64 154.69 258.64 154.69 251.44 197.67 251.44"/><rect class="cls-2" x="158.91" y="246.96" width="41.43" height="3.23"/><polygon class="cls-18" points="201.9 246.96 201.9 245.72 117.92 245.72 117.92 250.19 158.91 250.19 158.91 246.96 201.9 246.96"/><rect class="cls-19" x="118.17" y="258.64" width="83.98" height="8.45"/><rect class="cls-2" x="159.16" y="259.88" width="42.98" height="7.21"/><rect class="cls-20" x="137.61" y="253.49" width="10.06" height="2.24"/><rect class="cls-21" x="148.48" y="253.49" width="1.24" height="2.24"/><path class="cls-5" d="M192.4,153.72a2.33,2.33,0,1,1-2.33-2.33A2.33,2.33,0,0,1,192.4,153.72Z"/><path class="cls-5" d="M268.8,136.59a3.95,3.95,0,1,1-3.95-4A4,4,0,0,1,268.8,136.59Z"/><rect class="cls-5" x="153.03" y="175.45" width="36.76" height="22.79" rx="2.11"/><path class="cls-8" d="M189,176l-17.25,14.57L154.2,175.68a2.21,2.21,0,0,0-.58.42l11.17,9.44L153,195.48v.64a2.11,2.11,0,0,0,0,.26L165.34,186l6.43,5.43,6.44-5.43,11.57,9.77v-.92l-11-9.32,10.72-9A2,2,0,0,0,189,176Z"/><rect class="cls-5" x="280.84" y="136.29" width="24.93" height="15.46" rx="1.43"/><path class="cls-8" d="M305.25,136.63l-11.7,9.88-11.92-10.07a1.42,1.42,0,0,0-.39.29l7.57,6.4-8,6.74v.44c0,.06,0,.12,0,.17l8.34-7,4.36,3.68,4.36-3.68,7.85,6.63v-.63l-7.48-6.32,7.28-6.14A1.55,1.55,0,0,0,305.25,136.63Z"/><rect class="cls-8" x="210.95" y="111.7" width="25.07" height="5.32" rx="1.9"/><rect class="cls-2" x="213.87" y="113.1" width="20.29" height="0.76"/><rect class="cls-2" x="213.87" y="114.92" width="5.77" height="0.76"/><rect class="cls-10" x="216.44" y="102.77" width="25.07" height="5.32" rx="1.9"/><rect class="cls-2" x="219.37" y="104.17" width="10.38" height="0.76"/><rect class="cls-2" x="219.37" y="105.99" width="5.77" height="0.76"/><rect class="cls-8" x="210.95" y="93.96" width="25.07" height="5.32" rx="1.9"/><rect class="cls-2" x="213.87" y="95.35" width="20.29" height="0.76"/><rect class="cls-2" x="213.87" y="97.17" width="5.77" height="0.76"/><rect class="cls-10" x="216.44" y="85.03" width="25.07" height="5.32" rx="1.9"/><rect class="cls-2" x="219.37" y="86.42" width="10.38" height="0.76"/><rect class="cls-2" x="219.37" y="88.24" width="5.77" height="0.76"/><path class="cls-22" d="M305.37,267.41H253.08v-2.2h50.09a2.2,2.2,0,0,1,2.2,2.2Z"/><path class="cls-22" d="M259.78,267H179.06l-6.82-46.62a2.37,2.37,0,0,1,2.34-2.71h75.94a2.36,2.36,0,0,1,2.34,2Z"/><path class="cls-16" d="M258.23,267H177.52l-6.82-46.62a2.37,2.37,0,0,1,2.34-2.71H249a2.36,2.36,0,0,1,2.33,2Z"/><path class="cls-5" d="M216.83,245.13a5.15,5.15,0,0,1-5.32,5.7,6.57,6.57,0,0,1-6.51-5.65,5.16,5.16,0,0,1,5.32-5.71A6.57,6.57,0,0,1,216.83,245.13Z"/><polygon class="cls-5" points="412.5 278.14 444.47 442.45 440.92 442.45 405.39 277.25 412.5 278.14"/><polygon class="cls-8" points="391.75 278.14 423.72 442.45 420.17 442.45 384.64 277.25 391.75 278.14"/><polygon class="cls-5" points="87.5 278.14 55.53 442.45 59.08 442.45 94.6 277.25 87.5 278.14"/><polygon class="cls-8" points="108.25 278.14 76.28 442.45 79.83 442.45 115.36 277.25 108.25 278.14"/><path class="cls-9" d="M427.18,279.92H72.82a9.33,9.33,0,0,1-9.33-9.33h373A9.33,9.33,0,0,1,427.18,279.92Z"/><rect class="cls-15" x="54.64" y="266.39" width="390.72" height="5.27"/><rect class="cls-7" x="355.45" y="263.75" width="64.57" height="3.29"/><path class="cls-23" d="M281.71,183.23a4.09,4.09,0,1,1-5.47-1.89A4.09,4.09,0,0,1,281.71,183.23Z"/><path class="cls-5" d="M419.36,214a5.93,5.93,0,1,1-5.93-5.93A5.93,5.93,0,0,1,419.36,214Z"/><path class="cls-2" d="M416.72,214a3.29,3.29,0,1,1-3.29-3.3A3.29,3.29,0,0,1,416.72,214Z"/><circle class="cls-5" cx="171.58" cy="122.45" r="29.86" transform="translate(12.56 260.82) rotate(-76.54)"/><path class="cls-24" d="M181.84,149.19c-12.07-12.07-26.83-11.29-34.75-9.67a29.85,29.85,0,0,0,35.51,10.67C182.35,149.86,182.11,149.53,181.84,149.19Z"/><path class="cls-12" d="M184,126.08s1.53,6.35-.61,8.56-8.72.39-10.48,1.89-2.9,5.39-.24,7.85c1.17,2.23-11.57.7-13.61-2.42.48-1.45,5.37-6.53,5.42-10.08s-.44-10-.1-15.3,6.69-6.82,10.25-6.77,8.4,1.6,9,6a28.39,28.39,0,0,0,3,9.65C187.28,126.34,184,126.08,184,126.08Z"/><path class="cls-15" d="M163.18,109.85s-5,3.11-3.58,8.4a29.45,29.45,0,0,0,5.14,9.8l4.82-1.71s-3.27-4.67-2-6.69,3.42-1.24,4.19.47a9.89,9.89,0,0,1,.63,4l1.86-.62s.93-5.91-.62-8.71-2.33-3-2.33-3,1.55,2.49,5.44,1.25,5.13,1.55,7.77,2,3.74-2.18,3.74-2.18a3.43,3.43,0,0,1-2.8-.46c-1.4-.94-2.34-5.14-5.91-7.16S165.67,101.77,163.18,109.85Z"/><path class="cls-23" d="M179.34,124.82a2.41,2.41,0,1,1-3.21-1.12A2.41,2.41,0,0,1,179.34,124.82Z"/><path class="cls-25" d="M172.93,136.53c1.76-1.5,8.35.31,10.48-1.89a3,3,0,0,0,.49-.71,5.52,5.52,0,0,1-2.84,1c-5.36.46-10.73-7-12.36-4.67s1.4,6.53.47,10.5a10,10,0,0,1-2.64,4.37c3.52.6,6.78.47,6.16-.71C170,141.92,171.16,138,172.93,136.53Z"/><circle class="cls-5" cx="235.08" cy="148.97" r="24.91"/><path class="cls-16" d="M236.77,138.57l-5.6-4.45s-3.79,1-5,6.18,6.43,6.42,2.23,11.11-8.16,5-7.17,10.38c.34,1.86-2,2.94-4.62,3.86a24.89,24.89,0,0,0,22.77,7.86c3.72-11.3,1.56-26.14,1.12-26.79S236.77,138.57,236.77,138.57Z"/><path class="cls-12" d="M227.42,147.94s-2.73,4.72-1.54,7,6.88,2.38,7.94,4,1.05,5-1.67,6.34c-1.46,1.5,9.1,3.3,11.47,1.28,0-1.28-2.75-6.5-2-9.36s2.72-7.89,3.71-12.21-3.74-7-6.6-7.84-7.1-.71-8.6,2.69a24.1,24.1,0,0,1-4.72,7C224.74,147.38,227.42,147.94,227.42,147.94Z"/><path class="cls-23" d="M231.46,148a2,2,0,1,0,2.84-.13A2,2,0,0,0,231.46,148Z"/><path class="cls-25" d="M233.82,158.93c-1.06-1.62-6.75-1.73-7.94-4a2.17,2.17,0,0,1-.22-.68,4.57,4.57,0,0,0,2,1.44c4.18,1.64,10.24-3.06,11-.81s-2.67,4.89-2.86,8.29a8.31,8.31,0,0,0,1.08,4.12c-3-.35-5.54-1.23-4.77-2C234.87,163.93,234.88,160.55,233.82,158.93Z"/><path class="cls-10" d="M235.08,173.88a24.79,24.79,0,0,0,14.68-4.79c-1.64-2-4-2.73-5.33-3.84-1.73-1.48-1-4.45-2-5.19s-8.4.5-8.4.5c.74,3.46-2,5.43-7.17,7.66a18.31,18.31,0,0,0-4.23,2.34A24.8,24.8,0,0,0,235.08,173.88Z"/><path class="cls-16" d="M259.06,155.7c-.07-.11-.14-.22-.22-.33-3.3-4.45-7.74-4-9.55-10.22S248,138.07,244,135.6s-8.73-3.95-12.84-1.48c0,0-4.47,2.2-1,5.71s5.94,1.7,6.76,5.65-3,5.77.17,8.57-.17,4.78,1.64,9.88a13,13,0,0,0,7.07,7.53A25,25,0,0,0,259.06,155.7Z"/><path class="cls-8" d="M151.43,92.3h-20A3.46,3.46,0,0,0,128,95.76v26.52a3.45,3.45,0,0,0,3.46,3.45H142.2c.76,1.12,2.58,3.55,4.62,4.42v-4.42h4.61a3.45,3.45,0,0,0,3.46-3.45V95.76A3.46,3.46,0,0,0,151.43,92.3Z"/><rect class="cls-2" x="136.87" y="98.45" width="14.18" height="1.23" transform="translate(287.92 198.13) rotate(180)"/><rect class="cls-2" x="143.98" y="102.34" width="7.07" height="1.23" transform="translate(295.03 205.92) rotate(180)"/><rect class="cls-2" x="141.95" y="106.14" width="9.1" height="1.23" transform="translate(293 213.51) rotate(180)"/><rect class="cls-2" x="131.71" y="110.6" width="19.34" height="1.23" transform="translate(282.76 222.43) rotate(180)"/><rect class="cls-2" x="141.4" y="114.5" width="9.65" height="1.23" transform="translate(292.45 230.22) rotate(180)"/><rect class="cls-2" x="138.64" y="118.29" width="12.41" height="1.23" transform="translate(289.69 237.81) rotate(180)"/><rect class="cls-8" x="321.68" y="153.23" width="35.58" height="47.44"/><rect class="cls-5" x="318.06" y="149.93" width="35.58" height="47.44"/><rect class="cls-2" x="323.77" y="163.02" width="14.18" height="1.23"/><rect class="cls-2" x="323.77" y="166.91" width="7.07" height="1.23"/><rect class="cls-2" x="323.77" y="170.71" width="9.1" height="1.23"/><rect class="cls-2" x="323.77" y="175.17" width="19.34" height="1.23"/><rect class="cls-2" x="323.77" y="179.07" width="9.65" height="1.23"/><rect class="cls-2" x="323.77" y="182.86" width="12.41" height="1.23"/><circle class="cls-5" cx="269.6" cy="105.94" r="15.52" transform="translate(4.06 221.67) rotate(-45)"/><path class="cls-8" d="M261.76,107.51a14.71,14.71,0,0,0,1.58-5,3.22,3.22,0,0,1,.13-.47,2.1,2.1,0,0,1-.77-1.93c.33-1.81,2.8-3.12,6.42-2.8s3.46,2.31,3.46,2.31,1.15,0,2.47,1.81-.45,8.22-1.76,8.23c0,.44,0,.85,0,1.2,0,1.13,1,2.56,1.78,3.68a22.36,22.36,0,0,1,7.28.29,15.51,15.51,0,0,1-18.47,5.55l.4-.52a18.6,18.6,0,0,1,5.5-3.83,3,3,0,0,0-.87-2.75,1,1,0,0,0-.2-.13,2,2,0,0,0-.55-.15,4.88,4.88,0,0,0-.7-.07h-1.62a7.54,7.54,0,0,1-1.19-.1l-.36-.08a1.76,1.76,0,0,1-.83-.45,1.54,1.54,0,0,1-.25-.36h0c-.72-1.36-.07-4.09-.07-4.09S261.44,108,261.76,107.51Z"/><rect class="cls-26" x="127.8" y="161.79" width="43.98" height="4.94"/><rect class="cls-26" x="308.17" y="130.66" width="14.82" height="3.46"/><path class="cls-26" d="M300.27,111.88a2,2,0,1,1-2-2A2,2,0,0,1,300.27,111.88Z"/><path class="cls-26" d="M309.16,111.88a2,2,0,1,1-2-2A2,2,0,0,1,309.16,111.88Z"/><path class="cls-26" d="M318.06,111.88a2,2,0,1,1-2-2A2,2,0,0,1,318.06,111.88Z"/><path class="cls-24" d="M122.86,150.1a1.32,1.32,0,1,1-1.32-1.32A1.32,1.32,0,0,1,122.86,150.1Z"/><path class="cls-24" d="M131.43,150.1a1.32,1.32,0,1,1-1.32-1.32A1.32,1.32,0,0,1,131.43,150.1Z"/><path class="cls-24" d="M140,150.1a1.32,1.32,0,1,1-1.32-1.32A1.32,1.32,0,0,1,140,150.1Z"/></g></svg>